<svg width="28" height="28" viewBox="0 0 28 28" fill="none" xmlns="http://www.w3.org/2000/svg">
<path d="M9.625 11.375C9.625 11.1429 9.71719 10.9204 9.88128 10.7563C10.0454 10.5922 10.2679 10.5 10.5 10.5H17.5C17.7321 10.5 17.9546 10.5922 18.1187 10.7563C18.2828 10.9204 18.375 11.1429 18.375 11.375C18.375 11.6071 18.2828 11.8296 18.1187 11.9937C17.9546 12.1578 17.7321 12.25 17.5 12.25H10.5C10.2679 12.25 10.0454 12.1578 9.88128 11.9937C9.71719 11.8296 9.625 11.6071 9.625 11.375ZM10.5 15.75H17.5C17.7321 15.75 17.9546 15.6578 18.1187 15.4937C18.2828 15.3296 18.375 15.1071 18.375 14.875C18.375 14.6429 18.2828 14.4204 18.1187 14.2563C17.9546 14.0922 17.7321 14 17.5 14H10.5C10.2679 14 10.0454 14.0922 9.88128 14.2563C9.71719 14.4204 9.625 14.6429 9.625 14.875C9.625 15.1071 9.71719 15.3296 9.88128 15.4937C10.0454 15.6578 10.2679 15.75 10.5 15.75ZM25.375 6.125V20.125C25.375 20.5891 25.1906 21.0342 24.8624 21.3624C24.5342 21.6906 24.0891 21.875 23.625 21.875H17.0155L15.5192 24.4934C15.3661 24.7612 15.145 24.9837 14.8782 25.1385C14.6114 25.2933 14.3084 25.3748 14 25.3748C13.6916 25.3748 13.3886 25.2933 13.1218 25.1385C12.855 24.9837 12.6339 24.7612 12.4808 24.4934L10.9845 21.875H4.375C3.91087 21.875 3.46575 21.6906 3.13756 21.3624C2.80937 21.0342 2.625 20.5891 2.625 20.125V6.125C2.625 5.66087 2.80937 5.21575 3.13756 4.88756C3.46575 4.55937 3.91087 4.375 4.375 4.375H23.625C24.0891 4.375 24.5342 4.55937 24.8624 4.88756C25.1906 5.21575 25.375 5.66087 25.375 6.125ZM23.625 6.125H4.375V20.125H11.492C11.647 20.1236 11.7995 20.1634 11.934 20.2403C12.0685 20.3171 12.1802 20.4283 12.2577 20.5625L14.0077 23.625L15.7577 20.5625C15.8351 20.4283 15.9468 20.3171 16.0813 20.2403C16.2158 20.1634 16.3684 20.1236 16.5233 20.125H23.625V6.125Z" fill="white"/>
</svg>
