<svg width="24" height="23" viewBox="0 0 24 23" fill="none" xmlns="http://www.w3.org/2000/svg">
<path d="M23.2569 21.1875C21.5911 18.3077 19.0241 16.2427 16.0283 15.2638C17.5101 14.3816 18.6614 13.0374 19.3054 11.4376C19.9493 9.83778 20.0503 8.07081 19.5929 6.40805C19.1354 4.74528 18.1448 3.27865 16.7731 2.23339C15.4014 1.18812 13.7245 0.622025 12 0.622025C10.2755 0.622025 8.59858 1.18812 7.2269 2.23339C5.85523 3.27865 4.86459 4.74528 4.40712 6.40805C3.94966 8.07081 4.05066 9.83778 4.69461 11.4376C5.33857 13.0374 6.48987 14.3816 7.97172 15.2638C4.97594 16.2416 2.40891 18.3066 0.743125 21.1875C0.682038 21.2871 0.64152 21.3979 0.62396 21.5135C0.606401 21.629 0.612156 21.7468 0.640886 21.8601C0.669617 21.9734 0.720741 22.0797 0.791242 22.1729C0.861742 22.2661 0.950192 22.3442 1.05137 22.4026C1.15255 22.4611 1.26441 22.4987 1.38035 22.5132C1.49629 22.5277 1.61397 22.5188 1.72643 22.4871C1.83889 22.4554 1.94387 22.4015 2.03516 22.3286C2.12645 22.2557 2.20221 22.1652 2.25797 22.0625C4.31859 18.5012 7.96078 16.375 12 16.375C16.0392 16.375 19.6814 18.5012 21.742 22.0625C21.7978 22.1652 21.8735 22.2557 21.9648 22.3286C22.0561 22.4015 22.1611 22.4554 22.2736 22.4871C22.386 22.5188 22.5037 22.5277 22.6196 22.5132C22.7356 22.4987 22.8474 22.4611 22.9486 22.4026C23.0498 22.3442 23.1383 22.2661 23.2088 22.1729C23.2793 22.0797 23.3304 21.9734 23.3591 21.8601C23.3878 21.7468 23.3936 21.629 23.376 21.5135C23.3585 21.3979 23.318 21.2871 23.2569 21.1875ZM5.875 8.5C5.875 7.28859 6.23422 6.10438 6.90725 5.09713C7.58027 4.08988 8.53687 3.30482 9.65606 2.84124C10.7753 2.37765 12.0068 2.25636 13.1949 2.49269C14.3831 2.72902 15.4744 3.31237 16.331 4.16897C17.1876 5.02557 17.771 6.11694 18.0073 7.30507C18.2436 8.49321 18.1223 9.72474 17.6588 10.8439C17.1952 11.9631 16.4101 12.9197 15.4029 13.5928C14.3956 14.2658 13.2114 14.625 12 14.625C10.3761 14.6233 8.81917 13.9774 7.67089 12.8291C6.52261 11.6808 5.87674 10.1239 5.875 8.5Z" fill="white"/>
</svg>
