<svg width="26" height="26" viewBox="0 0 26 26" fill="none" xmlns="http://www.w3.org/2000/svg">
<path d="M21.0001 5.99999H14.0001V0.999994C14.0002 0.802098 13.9416 0.608606 13.8318 0.444012C13.7219 0.279418 13.5657 0.151124 13.3828 0.0753715C13.2 -0.000380963 12.9988 -0.0201856 12.8047 0.0184648C12.6107 0.0571152 12.4324 0.152483 12.2926 0.292494L0.292554 12.2925C0.199578 12.3854 0.125819 12.4957 0.0754944 12.6171C0.0251701 12.7385 -0.000732422 12.8686 -0.000732422 13C-0.000732422 13.1314 0.0251701 13.2615 0.0754944 13.3829C0.125819 13.5043 0.199578 13.6146 0.292554 13.7075L12.2926 25.7075C12.4324 25.8475 12.6107 25.9429 12.8047 25.9815C12.9988 26.0202 13.2 26.0004 13.3828 25.9246C13.5657 25.8489 13.7219 25.7206 13.8318 25.556C13.9416 25.3914 14.0002 25.1979 14.0001 25V20H21.0001C21.2653 20 21.5196 19.8946 21.7072 19.7071C21.8947 19.5196 22.0001 19.2652 22.0001 19V6.99999C22.0001 6.73478 21.8947 6.48042 21.7072 6.29289C21.5196 6.10535 21.2653 5.99999 21.0001 5.99999ZM20.0001 18H13.0001C12.7348 18 12.4805 18.1054 12.2929 18.2929C12.1054 18.4804 12.0001 18.7348 12.0001 19V22.5862L2.4138 13L12.0001 3.41374V6.99999C12.0001 7.26521 12.1054 7.51956 12.2929 7.7071C12.4805 7.89464 12.7348 7.99999 13.0001 7.99999H20.0001V18ZM26.0001 6.99999V19C26.0001 19.2652 25.8947 19.5196 25.7072 19.7071C25.5196 19.8946 25.2653 20 25.0001 20C24.7348 20 24.4805 19.8946 24.2929 19.7071C24.1054 19.5196 24.0001 19.2652 24.0001 19V6.99999C24.0001 6.73478 24.1054 6.48042 24.2929 6.29289C24.4805 6.10535 24.7348 5.99999 25.0001 5.99999C25.2653 5.99999 25.5196 6.10535 25.7072 6.29289C25.8947 6.48042 26.0001 6.73478 26.0001 6.99999Z" fill="#FF5722"/>
</svg>
